<?xml version="1.0" encoding="UTF-8" standalone="no"?>
<!DOCTYPE svg PUBLIC "-//W3C//DTD SVG 1.1//EN"
 "http://www.w3.org/Graphics/SVG/1.1/DTD/svg11.dtd">
<!-- Generated by graphviz version 3.0.0 (20220226.1711)
 -->
<!-- Title: dependencies Pages: 1 -->
<svg width="176pt" height="247pt"
 viewBox="0.00 0.00 176.00 246.80" xmlns="http://www.w3.org/2000/svg" xmlns:xlink="http://www.w3.org/1999/xlink">
<g id="graph0" class="graph" transform="scale(1 1) rotate(0) translate(4 242.8)">
<title>dependencies</title>
<polygon fill="white" stroke="transparent" points="-4,4 -4,-242.8 172,-242.8 172,4 -4,4"/>
<text text-anchor="middle" x="84" y="-8.2" font-family="sans-serif" font-size="14.00">dependencies</text>
<g id="clust1" class="cluster">
<title>cluster_HomeModule</title>
<polygon fill="none" stroke="black" stroke-dasharray="1,5" points="8,-32.8 8,-230.8 160,-230.8 160,-32.8 8,-32.8"/>
</g>
<g id="clust5" class="cluster">
<title>cluster_HomeModule_exports</title>
<polygon fill="none" stroke="black" points="16,-170.8 16,-222.8 152,-222.8 152,-170.8 16,-170.8"/>
</g>
<g id="clust2" class="cluster">
<title>cluster_HomeModule_declarations</title>
<polygon fill="none" stroke="black" points="18,-40.8 18,-92.8 150,-92.8 150,-40.8 18,-40.8"/>
</g>
<!-- HomeComponent -->
<g id="node1" class="node">
<title>HomeComponent</title>
<polygon fill="#ffffb3" stroke="black" points="141.55,-84.8 26.45,-84.8 26.45,-48.8 141.55,-48.8 141.55,-84.8"/>
<text text-anchor="middle" x="84" y="-62.6" font-family="Times,serif" font-size="14.00">HomeComponent</text>
</g>
<!-- HomeModule -->
<g id="node2" class="node">
<title>HomeModule</title>
<polygon fill="#8dd3c7" stroke="black" points="130.77,-149.8 127.77,-153.8 106.77,-153.8 103.77,-149.8 37.23,-149.8 37.23,-113.8 130.77,-113.8 130.77,-149.8"/>
<text text-anchor="middle" x="84" y="-127.6" font-family="Times,serif" font-size="14.00">HomeModule</text>
</g>
<!-- HomeComponent&#45;&gt;HomeModule -->
<g id="edge1" class="edge">
<title>HomeComponent&#45;&gt;HomeModule</title>
<path fill="none" stroke="black" d="M84,-84.91C84,-84.91 84,-103.79 84,-103.79"/>
<polygon fill="black" stroke="black" points="80.5,-103.79 84,-113.79 87.5,-103.79 80.5,-103.79"/>
</g>
<!-- HomeComponent  -->
<g id="node3" class="node">
<title>HomeComponent </title>
<polygon fill="#fb8072" stroke="black" points="143.54,-214.8 24.46,-214.8 24.46,-178.8 143.54,-178.8 143.54,-214.8"/>
<text text-anchor="middle" x="84" y="-192.6" font-family="Times,serif" font-size="14.00">HomeComponent </text>
</g>
<!-- HomeModule&#45;&gt;HomeComponent  -->
<g id="edge2" class="edge">
<title>HomeModule&#45;&gt;HomeComponent </title>
<path fill="none" stroke="black" stroke-dasharray="5,2" d="M84,-149.91C84,-149.91 84,-168.79 84,-168.79"/>
<polygon fill="black" stroke="black" points="80.5,-168.79 84,-178.79 87.5,-168.79 80.5,-168.79"/>
</g>
</g>
</svg>
